# xmcd
#
# Track frame offsets:
#	150
#	26573
#	43908
#	71446
#	108682
#	135417
#	151780
#	168495
#	186974
#	205835
#	228081
#	247173
#	268444
#	291233
#	312341
#	338110
#
# Disc length: 4770 seconds
#
# Revision: 2
# Processed by: cddbd v1.4PL0 Copyright (c) Steve Scherf et al.
# Submitted via: EZCDDA 4.3.2
#
DISCID=f012a010
DTITLE=Dire Straits - Sultans of Swing
DYEAR=1900
DGENRE=Blues
TTITLE0=Sultans Of Swing
TTITLE1=Lady Writer
TTITLE2=Romeo and Juliet
TTITLE3=Tunnel of Love
TTITLE4=Private Investigations
TTITLE5=Twisting by the Pool
TTITLE6=Love Over Gold (Live)
TTITLE7=So Far Away
TTITLE8=Money for Nothing
TTITLE9=Brothers in Arms
TTITLE10=Walk of Life
TTITLE11=Calling Elvis
TTITLE12=Heavy Fuel
TTITLE13=On Every Street
TTITLE14=Your Latest Trick (Live)
TTITLE15=Local Hero - Wild Theme (Live)
EXTD=SULTANS OF SWING\nThe Very Best Of DIRE STRAITS ID3G:   0\n
EXTT0=
EXTT1=
EXTT2=
EXTT3=
EXTT4=
EXTT5=
EXTT6=
EXTT7=
EXTT8=
EXTT9=
EXTT10=
EXTT11=
EXTT12=
EXTT13=
EXTT14=
EXTT15=
PLAYORDER=
